 <svg
      width="147"
      height="24"
      viewBox="0 0 147 24"
      fill="none"
      xmlns="http://www.w3.org/2000/svg"
    >
      <path
        d="M24.9539 6.78788C24.2884 5.87879 23.381 5.21212 22.292 4.72727C21.2031 4.24242 19.9932 4 18.7228 4C17.3919 4 16.1215 4.24242 14.972 4.72727C13.8226 5.21212 12.7337 5.87879 11.8262 6.72727C10.9188 7.57576 10.1324 8.66667 9.5274 9.87879C8.92244 11.0909 8.49897 12.4242 8.31748 13.9394C8.136 15.3939 8.19649 16.7879 8.43848 18C8.74096 19.2121 9.22492 20.303 9.89038 21.1515C10.5558 22 11.4633 22.7273 12.4917 23.2121C13.5201 23.697 14.73 23.9394 16.1215 23.9394C17.4524 23.9394 18.7228 23.697 19.9327 23.2121C21.0821 22.7273 22.171 22.0606 23.0785 21.1515C23.9859 20.303 24.7119 19.2121 25.3168 18C25.9218 16.7879 26.2848 15.3939 26.4662 13.9394C26.6477 12.4849 26.5872 11.0909 26.3453 9.87879C26.1638 8.72727 25.6193 7.69697 24.9539 6.78788ZM13.2781 14C13.5201 12.2424 14.0646 10.8485 14.972 9.81818C15.819 8.78788 16.9079 8.30303 18.2388 8.30303C19.5697 8.30303 20.4772 8.78788 21.0821 9.75758C21.6871 10.7879 21.8686 12.1818 21.6266 13.8788C21.3846 15.6364 20.8401 17.0909 19.9327 18.1212C19.0858 19.1515 17.9968 19.6364 16.6659 19.6364C15.335 19.6364 14.4276 19.1515 13.8831 18.1818C13.2781 17.2121 13.0967 15.8182 13.2781 14Z"
        fill="#EF3F3E"
      />
      <path
        d="M46.0669 23.5152H50.9065L53.3869 4.48486H48.5472L46.0669 23.5152Z"
        fill="#EF3F3E"
      />
      <path
        d="M65.365 4.06055C63.9132 4.06055 62.5822 4.30297 61.3723 4.84843C60.1624 5.33327 59.0735 6.06055 58.1661 6.96964C57.2586 7.87873 56.4722 8.90903 55.8672 10.1212C55.2623 11.3333 54.8993 12.6666 54.7178 13.9999C54.5363 15.3939 54.5363 16.7272 54.7783 17.9393C55.0203 19.1515 55.4437 20.2424 56.1092 21.1515C56.7747 22.0605 57.6821 22.7272 58.8315 23.2727C59.9809 23.7575 61.3723 23.9999 62.9452 23.9999C63.9736 23.9999 65.0021 23.8787 65.97 23.6969C66.9984 23.5151 67.7244 23.2727 68.2688 23.0302L68.4503 22.9696L68.3293 18.7878L67.9059 18.9696C67.3614 19.1515 66.7565 19.3333 66.091 19.4545C65.3651 19.5757 64.6996 19.6363 63.9736 19.6363C62.1588 19.6363 60.8884 19.1515 60.2834 18.1818C59.618 17.2121 59.4365 15.8181 59.6784 14.0605C59.9204 12.2424 60.5254 10.7878 61.4933 9.81812C62.4613 8.84843 63.7317 8.36358 65.2441 8.36358C65.9095 8.36358 66.575 8.42418 67.1194 8.5454C67.7244 8.66661 68.2084 8.84843 68.6318 9.03024L68.9343 9.15146L70.5072 5.09085L70.2652 4.96964C68.8133 4.36358 67.1799 4.06055 65.365 4.06055Z"
        fill="#EF3F3E"
      />
      <path
        d="M99.4243 23.5152H104.264L106.744 4.48486H101.905L99.4243 23.5152Z"
        fill="#EF3F3E"
      />
      <path
        d="M124.288 6.60594C123.744 5.81806 122.957 5.212 121.989 4.78776C121.021 4.36352 119.751 4.12109 118.178 4.12109C116.605 4.12109 115.093 4.24231 113.762 4.42412C112.431 4.60594 111.342 4.84837 110.435 5.09079L110.253 5.1514L107.894 23.4544H112.733L114.669 8.60594C114.972 8.54534 115.274 8.54534 115.758 8.48473C116.363 8.42412 116.908 8.36352 117.392 8.36352C118.057 8.36352 118.662 8.48473 119.085 8.66655C119.509 8.84837 119.811 9.09079 119.993 9.45443C120.235 9.81806 120.356 10.3635 120.356 11.0302C120.416 11.6969 120.356 12.5453 120.235 13.515L118.904 23.515H123.744L125.135 12.909C125.316 11.6362 125.316 10.4847 125.195 9.39382C125.135 8.30291 124.833 7.33321 124.288 6.60594Z"
        fill="#EF3F3E"
      />
      <path
        d="M141.469 0L140.803 4.9697C140.44 4.78788 139.956 4.60606 139.472 4.42424C138.807 4.18182 137.96 4.12121 137.053 4.12121C135.722 4.12121 134.451 4.36364 133.362 4.84848C132.273 5.33333 131.306 6 130.459 6.84849C129.612 7.69697 128.946 8.78788 128.402 10C127.857 11.2121 127.494 12.5455 127.313 14.0606C127.131 15.5758 127.192 16.9697 127.434 18.1818C127.736 19.3939 128.22 20.4848 128.946 21.3333C129.672 22.1818 130.64 22.8485 131.729 23.3333C132.878 23.8182 134.149 24 135.661 24C137.053 24 138.444 23.8788 139.775 23.697C141.106 23.4545 142.195 23.2727 143.102 22.9697L143.284 22.9091L146.369 0H141.469ZM138.021 19.5758C137.537 19.6364 136.992 19.6364 136.327 19.6364C134.875 19.6364 133.786 19.1515 133.12 18.1818C132.394 17.2121 132.152 15.7576 132.394 14C132.636 12.2424 133.12 10.8485 133.967 9.87879C134.754 8.90909 135.843 8.42424 137.355 8.42424C138.021 8.42424 138.626 8.54545 139.17 8.72727C139.654 8.90909 140.077 9.09091 140.38 9.33333L138.989 19.3939C138.686 19.4545 138.384 19.5152 138.021 19.5758Z"
        fill="#EF3F3E"
      />
      <path
        d="M35.7221 9.81818C36.6295 8.84849 37.8999 8.36364 39.4728 8.36364C40.1383 8.36364 40.8037 8.42424 41.3482 8.54546C41.9532 8.66667 42.4371 8.84849 42.8606 9.0303L43.1631 9.15152L44.736 5.09091L44.494 4.9697C42.9816 4.30303 41.3482 4 39.5938 4C38.1419 4 36.811 4.24242 35.6011 4.78788C34.3912 5.27273 33.3023 6 32.3948 6.90909C31.4874 7.81818 30.7009 8.84849 30.096 10.0606C29.491 11.2727 29.128 12.6061 28.9466 13.9394C28.7651 15.3333 28.7651 16.6667 29.007 17.8788C29.249 19.0909 29.6725 20.1818 30.338 21.0909C31.0034 22 31.9108 22.6667 33.0603 23.2121C34.2097 23.697 35.6011 23.9394 37.174 23.9394C38.2024 23.9394 39.2308 23.8182 40.1988 23.6364C41.2272 23.4546 41.9532 23.2121 42.4976 22.9697L42.6186 22.9091L43.8285 13.6364H38.9889L38.2024 19.6364H38.1419C36.327 19.6364 35.0566 19.1515 34.4517 18.1818C33.7862 17.2121 33.6047 15.8182 33.8467 14.0606C34.1492 12.2424 34.7542 10.7879 35.7221 9.81818Z"
        fill="#EF3F3E"
      />
      <path
        d="M89.5634 16.0606L87.7485 4.48486H83.9977L78.9766 16.0606L77.3432 4.48486H72.2011L76.0123 23.5152H79.9445L84.9052 11.6364L86.7201 23.5152H90.5918L99.4242 4.48486H94.3425L89.5634 16.0606Z"
        fill="#EF3F3E"
      />
      <path
        d="M2.51149 0H7.35116L4.26587 24C1.66455 24 -0.271319 21.7576 0.03116 19.1515L2.51149 0Z"
        fill="#EF3F3E"
      />
    </svg>