<?xml version="1.0" encoding="UTF-8"?><svg id="Layer_1" xmlns="http://www.w3.org/2000/svg" viewBox="0 0 200 60"><defs><style>.cls-1{fill:#fff;}.cls-2{fill:#020202;}.cls-3{fill:#fc5027;}</style></defs><path class="cls-2" d="M88.02,27.5c1.02-1.02,1.5-2.33,1.5-3.99v-.26c0-1.09-.23-2.11-.71-2.97-.45-.87-1.09-1.54-1.88-2.03-.79-.49-1.66-.71-2.63-.71-1.66,0-2.9,.53-3.8,1.62-.9,1.05-1.35,2.45-1.35,4.14s.45,3.12,1.32,4.18c.9,1.05,2.14,1.62,3.84,1.62,1.5-.08,2.75-.56,3.72-1.58Zm-8.76,3.87c-1.35-.75-2.41-1.84-3.24-3.24-.83-1.39-1.2-3.05-1.2-4.93,0-2.78,.79-5.04,2.33-6.73,1.58-1.69,3.69-2.52,6.36-2.52,1.47,0,2.86,.38,4.06,1.09,1.24,.75,2.07,1.62,2.48,2.63l-.19-3.01V3.76h4.06v28.33h-3.95l-.08-3.12c-.45,.94-1.24,1.73-2.37,2.45-1.17,.71-2.45,1.05-3.87,1.05-1.58,.08-3.05-.34-4.4-1.09Z"/><path class="cls-2" d="M99.01,14.45h4.33v17.68h-4.33V14.45Zm.11-4.14c-.53-.53-.79-1.2-.79-1.99,0-.71,.26-1.35,.79-1.84,.53-.53,1.2-.79,1.99-.79s1.43,.26,1.96,.79,.79,1.13,.79,1.84c0,.79-.26,1.47-.79,1.99-.53,.53-1.2,.83-1.99,.83s-1.43-.26-1.96-.83Z"/><path class="cls-2" d="M120.49,27.5c1.02-1.02,1.5-2.33,1.5-3.99v-.26c0-1.09-.23-2.11-.68-2.97-.45-.87-1.09-1.54-1.88-2.03-.79-.49-1.66-.71-2.63-.71-1.66,0-2.9,.53-3.8,1.62-.9,1.05-1.35,2.45-1.35,4.14s.45,3.12,1.32,4.18c.9,1.05,2.14,1.62,3.84,1.62,1.47-.08,2.71-.56,3.69-1.58Zm-7.49,13.35c-1.28-.38-2.18-.68-2.71-1.02l.9-3.84c1.69,1.09,3.54,1.66,5.53,1.66,1.54,0,2.82-.38,3.87-1.13s1.58-2.18,1.62-4.36v-3.16c-.53,1.02-1.39,1.84-2.63,2.52-1.2,.68-2.52,1.02-3.99,1.02-1.54,0-2.97-.38-4.21-1.13-1.28-.75-2.29-1.84-3.05-3.27-.75-1.43-1.13-3.05-1.13-4.93s.34-3.39,1.05-4.82c.71-1.39,1.73-2.48,3.01-3.27,1.32-.79,2.82-1.17,4.59-1.17,1.02,0,1.99,.19,2.86,.53,.9,.38,1.66,.79,2.29,1.32s1.05,1.05,1.24,1.58l.08-2.97h3.91V31.97c0,3.01-.75,5.3-2.29,6.92s-3.91,2.45-7.15,2.45c-1.24,.04-2.52-.15-3.8-.49Z"/><path class="cls-2" d="M131.17,14.45h4.33v17.68h-4.33V14.45Zm.15-4.14c-.53-.53-.79-1.2-.79-1.99,0-.71,.26-1.35,.79-1.84,.53-.53,1.2-.79,1.99-.79s1.43,.26,1.96,.79c.53,.53,.83,1.13,.83,1.84,0,.79-.26,1.47-.79,1.99-.53,.53-1.2,.83-1.99,.83s-1.47-.26-1.99-.83Z"/><path class="cls-3" d="M149.75,27.39c-1.47-.83-2.63-2.07-3.54-3.65-.87-1.62-1.32-3.54-1.32-5.76s.41-4.18,1.28-5.79c.83-1.62,1.99-2.82,3.46-3.65,1.47-.83,3.08-1.24,4.89-1.24s3.42,.41,4.85,1.24c1.47,.83,2.6,2.03,3.46,3.65,.87,1.62,1.28,3.54,1.28,5.79,0,2.03-.34,3.8-1.05,5.3s-1.69,2.71-2.93,3.61l-1.66-2.71h-4.33l2.6,4.21c-.68,.15-1.43,.23-2.22,.23-1.73,0-3.31-.41-4.78-1.24Zm-2.33-22.27c-2.18,1.17-3.87,2.86-5.15,5.08-1.28,2.18-1.92,4.78-1.92,7.71s.64,5.49,1.92,7.71,3.01,3.91,5.15,5.12c2.18,1.2,4.55,1.81,7.11,1.81,1.5,0,3.01-.23,4.48-.64l2.52,3.87h4.25l-3.5-5.42c1.96-1.24,3.54-2.9,4.7-5.04,1.17-2.14,1.73-4.59,1.73-7.37,0-2.97-.64-5.53-1.92-7.71-1.28-2.18-3.01-3.87-5.15-5.08-2.18-1.17-4.55-1.77-7.11-1.77-2.56-.04-4.93,.56-7.11,1.73Zm31.71,.11c-2.22,1.24-3.91,2.97-5.12,5.19s-1.84,4.7-1.84,7.52c0,2.63,.56,5.08,1.69,7.26s2.78,3.95,4.89,5.27c2.14,1.32,4.66,1.96,7.6,1.96,1.54,0,3.05-.23,4.55-.71s2.52-.98,3.08-1.47l-1.28-3.65c-2.11,1.28-4.29,1.92-6.55,1.92-1.96,0-3.61-.45-5.04-1.39-1.39-.94-2.48-2.18-3.2-3.76-.71-1.58-1.09-3.35-1.09-5.3,0-2.14,.41-4.03,1.24-5.64,.83-1.62,1.96-2.86,3.39-3.72s3.05-1.32,4.82-1.32c2.52,0,4.55,.68,6.13,2.07l1.69-3.5v-.53c-.26-.19-.68-.45-1.24-.71-.71-.34-1.62-.64-2.71-.94-1.09-.26-2.26-.41-3.54-.41-2.78,0-5.27,.64-7.49,1.88Z"/><path class="cls-3" d="M103.26,44.92v4.33c0,.38-.08,.71-.26,1.02s-.41,.53-.71,.71c-.3,.19-.6,.26-.9,.26-.41,0-.75-.08-.98-.26-.23-.15-.38-.41-.41-.79-.08-.34-.11-.83-.11-1.47v-3.84h-1.81v4.25c0,1.09,.19,1.96,.6,2.6,.38,.6,1.13,.94,2.14,.94,.6,0,1.09-.11,1.5-.3,.41-.23,.75-.53,1.05-.98l.19,1.13h1.47v-7.64l-1.77,.04h0Zm53.94,0v4.33c0,.38-.08,.71-.26,1.02s-.41,.53-.71,.71-.6,.26-.9,.26c-.41,0-.75-.08-.98-.26-.23-.15-.38-.41-.41-.79-.08-.34-.11-.83-.11-1.47v-3.84h-1.81v4.25c0,1.09,.19,1.96,.6,2.6,.38,.6,1.13,.94,2.14,.94,.6,0,1.09-.11,1.5-.3,.41-.23,.75-.53,1.05-.98l.19,1.13h1.47v-7.64l-1.77,.04h0Zm18.92,7.64h1.84v-7.64h-1.84v7.64Zm15.16-7.64l-1.69,4.85-.38,1.17-.38-1.17-1.62-4.85h-2.03l3.16,7.86-1.62,3.87h1.84l4.66-11.74h-1.96Zm-108.23,5.61c-.41-.49-.6-1.09-.6-1.77,0-.71,.19-1.35,.56-1.84,.38-.49,.9-.71,1.5-.71,.64,0,1.17,.26,1.58,.75,.41,.49,.6,1.09,.6,1.81s-.19,1.32-.56,1.81-.87,.71-1.5,.71c-.64-.04-1.17-.26-1.58-.75Zm-.56-5.27c-.6,.34-1.09,.83-1.39,1.43-.34,.6-.49,1.28-.49,1.99,0,.75,.15,1.43,.49,2.03,.34,.6,.79,1.09,1.39,1.43,.6,.34,1.32,.53,2.11,.53s1.47-.19,2.07-.53,1.05-.83,1.39-1.43,.49-1.28,.49-2.03-.15-1.39-.49-1.99c-.34-.6-.79-1.09-1.39-1.43-.6-.34-1.32-.53-2.11-.53s-1.47,.15-2.07,.53Zm9.4-.08c-.6,.34-1.05,.79-1.39,1.35-.34,.6-.49,1.28-.49,2.07s.19,1.54,.53,2.18c.34,.6,.83,1.09,1.43,1.43,.6,.34,1.28,.49,2.03,.49,.53,0,1.02-.08,1.47-.23,.45-.15,.79-.3,1.02-.49l-.64-1.28c-.19,.15-.41,.26-.75,.34-.34,.11-.68,.15-1.02,.15-.68,0-1.2-.23-1.62-.68-.38-.45-.56-1.09-.56-1.92,0-.71,.19-1.28,.56-1.73,.38-.41,.9-.64,1.62-.64,.6,0,1.13,.23,1.58,.71l.79-1.43c-.23-.23-.56-.41-1.02-.56-.41-.15-.94-.23-1.5-.23-.75,0-1.47,.15-2.03,.45Zm16.25,.11c-.56,.38-.83,.94-.83,1.62,0,.6,.19,1.09,.56,1.47s.9,.68,1.58,.94l.64,.23c.45,.15,.75,.3,.94,.41s.26,.3,.26,.53c0,.49-.41,.75-1.28,.75s-1.62-.23-2.26-.71l-.6,1.43c.23,.19,.64,.34,1.2,.49,.56,.15,1.13,.23,1.66,.23,.87,0,1.58-.19,2.18-.56,.56-.38,.87-.94,.87-1.69,0-.56-.19-1.02-.53-1.35-.34-.34-.87-.68-1.58-.94-.3-.11-.45-.19-.53-.19-.49-.15-.83-.3-1.02-.45-.23-.15-.3-.34-.3-.6,0-.49,.38-.71,1.17-.71,.38,0,.75,.04,1.05,.15s.53,.23,.68,.38l.64-1.43c-.23-.15-.56-.26-1.02-.38s-.87-.15-1.32-.15c-.9,0-1.66,.19-2.18,.56Zm12.83,5.23c-.41-.49-.6-1.09-.6-1.77,0-.71,.19-1.35,.56-1.84,.38-.49,.9-.71,1.5-.71,.64,0,1.17,.26,1.58,.75,.41,.49,.6,1.09,.6,1.81s-.19,1.32-.56,1.81-.87,.71-1.5,.71-1.17-.26-1.58-.75Zm-.56-5.27c-.6,.34-1.09,.83-1.39,1.43-.34,.6-.49,1.28-.49,1.99,0,.75,.15,1.43,.49,2.03,.34,.6,.79,1.09,1.39,1.43,.6,.34,1.32,.53,2.11,.53s1.47-.19,2.07-.53,1.05-.83,1.39-1.43c.34-.6,.49-1.28,.49-2.03s-.15-1.39-.49-1.99c-.34-.6-.79-1.09-1.39-1.43s-1.32-.53-2.11-.53-1.47,.15-2.07,.53Zm10.76-.08c-.45,.3-.79,.68-.98,1.13v-1.39h-1.77v7.64h1.81v-3.8c0-.53,.11-.98,.34-1.35s.53-.68,.87-.9c.34-.19,.68-.3,1.02-.3,.6,0,.98,.23,1.17,.64s.26,1.13,.26,2.07v3.61h1.81v-3.69c0-.94-.08-1.69-.23-2.29s-.41-1.05-.83-1.35c-.41-.34-1.02-.49-1.81-.49-.68,.04-1.2,.19-1.66,.49Zm12.83,5.34c-.38-.45-.56-1.05-.56-1.81s.19-1.32,.56-1.77,.94-.68,1.66-.68c.41,0,.79,.11,1.13,.3,.34,.23,.6,.49,.83,.87,.19,.38,.3,.79,.3,1.28v.11c0,.71-.23,1.28-.64,1.73-.41,.45-.98,.64-1.58,.64-.75,0-1.32-.23-1.69-.68Zm-.64-5.34c-.56,.3-1.02,.75-1.32,1.35-.34,.6-.49,1.32-.49,2.18,0,.79,.15,1.5,.49,2.11s.75,1.09,1.32,1.43c.56,.34,1.2,.49,1.88,.49,.64,0,1.2-.11,1.69-.34,.49-.23,.83-.56,1.13-.98v5.19h1.77v-11.66h-1.73v1.39c-.6-1.05-1.5-1.58-2.78-1.58-.79-.04-1.39,.11-1.96,.41Zm20.01,5.34c-.38-.45-.56-1.05-.56-1.81s.19-1.32,.56-1.77,.94-.68,1.66-.68c.41,0,.79,.11,1.13,.3,.34,.23,.6,.49,.83,.87,.19,.38,.3,.79,.3,1.28v.11c0,.71-.23,1.28-.64,1.73-.41,.45-.98,.64-1.58,.64-.75,0-1.32-.23-1.69-.68Zm-.71-5.3c-.56,.34-.98,.79-1.32,1.39-.3,.6-.45,1.28-.45,2.11s.19,1.5,.53,2.11,.83,1.05,1.39,1.39,1.2,.49,1.88,.49c.6,0,1.17-.15,1.66-.45s.83-.64,1.02-1.05l.04,1.35h1.69v-7.64h-1.69l-.04,1.28c-.08-.23-.26-.45-.53-.68-.26-.23-.6-.41-.98-.56s-.79-.23-1.24-.23c-.71,0-1.39,.15-1.96,.49Zm18.47-3.42v3.12h-1.35v1.47h1.35v6.17h1.81v-6.17h1.77v-1.47h-1.77v-3.5l-1.81,.38Zm-4.97-.3c-.23,.23-.34,.49-.34,.79,0,.34,.11,.64,.34,.87,.23,.23,.53,.34,.87,.34s.64-.11,.87-.34c.23-.23,.34-.53,.34-.87,0-.3-.11-.56-.34-.79s-.53-.34-.83-.34c-.38,0-.68,.11-.9,.34Zm-4.48,11.06h1.77v-12.23h-1.77v12.23Zm-95.21-11.59c-.49,.56-.71,1.32-.71,2.33v1.66h-1.24v1.43h1.24v6.21h1.77v-6.21h1.81v-1.43h-1.81v-1.69c0-.98,.38-1.43,1.13-1.43,.19,0,.38,.04,.53,.11,.15,.08,.26,.15,.34,.26l.34-1.69c-.49-.23-.9-.3-1.28-.3-.9-.08-1.62,.19-2.11,.75Z"/><path class="cls-3" d="M51.6,58.5H17.2c-6.24,0-11.31-5.06-11.31-11.31V12.8C5.89,6.56,10.96,1.5,17.2,1.5H51.6c6.24,0,11.31,5.06,11.31,11.31V47.2c0,6.24-5.06,11.31-11.31,11.31Z"/><path class="cls-1" d="M55.55,19.4c.24,.17,.38,.45,.37,.75-.07,1.38-.24,2.74-.5,4.06-2.5,12.45-13.5,21.82-26.68,21.82-5.75,0-11.09-1.79-15.48-4.83-.24-.17-.38-.45-.37-.75,.7-14.41,12.6-25.88,27.19-25.88,.46,0,.92,.01,1.38,.03,5.23,.26,10.06,1.99,14.11,4.8Z"/><path class="cls-1" d="M7.92,27.77c.42,3.81,1.48,6.9,2.46,9.02,.11,.24,.45,.18,.49-.08,1.39-9.23,9.33-20.18,19.89-23.04-8.99,.99-18.78,8.72-20.41,16.33-.24,1.11-2-3.36-2.44-2.23Z"/><path class="cls-1" d="M60.88,32.84c-.42-3.81-1.48-6.9-2.46-9.02-.11-.24-.45-.18-.49,.08-1.39,9.23-9.33,20.18-19.89,23.04,8.99-.99,18.78-8.72,20.41-16.33,.24-1.11,2,3.36,2.44,2.23Z"/><g><path class="cls-3" d="M40.35,27.35c-1.62-3.27-5.63-4.62-8.89-3-3.29,1.63-4.61,5.63-2.98,8.9,1.64,3.3,5.63,4.62,8.89,3,3.29-1.63,4.61-5.63,2.99-8.9Zm-5.94,7.73c-2.64,0-4.78-2.14-4.78-4.78s2.14-4.78,4.78-4.78,4.78,2.14,4.78,4.78-2.14,4.78-4.78,4.78Z"/><path class="cls-3" d="M38.19,37.91c-4.18,2.08-9.3,.35-11.38-3.84s-.36-9.31,3.82-11.38,9.3-.35,11.38,3.84c2.05,4.21,.36,9.31-3.82,11.38Zm-8.38-16.89c-5.11,2.53-7.22,8.77-4.68,13.89,2.54,5.12,8.76,7.22,13.89,4.67,5.11-2.53,7.19-8.76,4.65-13.87-2.54-5.12-8.76-7.22-13.86-4.68Z"/><circle class="cls-3" cx="34.4" cy="30.32" r="2.94"/></g></svg>